<?xml version="1.0" standalone="no"?>
<!DOCTYPE svg PUBLIC "-//W3C//DTD SVG 20010904//EN"
 "http://www.w3.org/TR/2001/REC-SVG-20010904/DTD/svg10.dtd">
<svg version="1.0" xmlns="http://www.w3.org/2000/svg"
 width="1489.000000pt" height="1489.000000pt" viewBox="0 0 1489.000000 1489.000000"
 preserveAspectRatio="xMidYMid meet">
<metadata>
Created by potrace 1.14, written by Peter Selinger 2001-2017
</metadata>
<g transform="translate(0.000000,1489.000000) scale(0.100000,-0.100000)"
fill="#000000" stroke="none">
<path d="M7397 13624 c-1 -1 -83 -4 -182 -8 -99 -4 -191 -8 -205 -10 -14 -3
-61 -7 -105 -11 -78 -6 -120 -11 -180 -20 -16 -2 -52 -7 -80 -10 -68 -8 -277
-44 -350 -59 -11 -2 -67 -14 -125 -26 -58 -12 -118 -26 -135 -31 -16 -5 -104
-29 -195 -54 -483 -131 -938 -322 -1425 -597 -91 -52 -131 -77 -285 -177 -76
-49 -269 -182 -295 -203 -5 -5 -55 -43 -110 -85 -881 -673 -1594 -1631 -1997
-2683 -79 -205 -190 -553 -212 -660 -3 -14 -14 -63 -26 -110 -21 -86 -55 -240
-65 -295 -8 -47 -35 -216 -41 -255 -3 -19 -7 -41 -9 -48 -4 -11 5 -12 37 -8
126 16 174 19 291 18 70 0 127 3 128 7 0 3 2 15 5 26 2 11 6 35 8 52 4 29 12
74 21 123 3 15 53 252 60 280 57 258 213 716 335 985 81 180 229 468 289 565
5 8 28 47 52 85 126 210 354 528 505 705 189 221 456 492 634 645 58 50 107
92 110 95 3 3 37 30 75 60 39 30 72 57 75 60 3 3 61 47 130 97 497 361 1032
633 1625 826 117 38 333 99 394 112 9 2 57 12 106 24 103 23 103 23 290 55
148 26 175 30 325 47 339 39 702 43 1120 14 50 -3 152 -14 189 -20 14 -3 52
-7 85 -10 34 -3 68 -8 76 -10 8 -3 47 -9 85 -15 146 -21 296 -52 500 -105
1201 -310 2269 -1001 3047 -1971 493 -615 854 -1321 1057 -2069 40 -146 84
-335 96 -405 3 -19 10 -57 15 -85 14 -72 25 -140 35 -222 4 -29 10 -54 13 -54
4 -1 105 -2 226 -3 l218 -1 -6 65 c-3 36 -8 79 -11 95 -2 17 -7 44 -9 60 -23
153 -58 323 -121 585 -69 285 -222 711 -370 1035 -171 375 -416 784 -669 1120
-355 472 -784 900 -1251 1250 -131 98 -431 301 -515 348 -25 13 -103 58 -175
99 -163 93 -408 213 -585 288 -69 29 -90 38 -145 61 -36 16 -158 60 -270 98
-60 21 -117 41 -125 44 -118 45 -612 165 -830 202 -19 3 -60 10 -90 15 -30 5
-77 12 -105 15 -27 3 -64 8 -81 11 -40 6 -90 11 -189 19 -44 4 -90 8 -102 10
-57 9 -577 25 -586 19z"/>
<path d="M7573 12004 c-891 -125 -1589 -834 -1700 -1725 -12 -100 -9 -445 5
-524 7 -38 15 -83 18 -100 12 -74 59 -239 95 -331 269 -690 888 -1172 1618
-1258 108 -13 458 -15 478 -3 4 3 31 8 58 11 28 4 57 9 65 11 8 2 29 7 45 9
63 11 93 19 185 48 373 119 687 332 945 641 115 136 246 362 311 533 54 141
96 306 119 464 11 71 14 399 5 465 -5 33 -11 82 -15 109 -3 27 -21 108 -40
180 -127 498 -438 919 -879 1193 -155 96 -405 203 -546 234 -19 4 -46 10 -60
13 -14 4 -79 15 -145 26 -142 22 -417 24 -562 4z m557 -218 c187 -33 313 -73
476 -151 356 -169 648 -455 827 -811 66 -131 138 -347 153 -459 3 -22 7 -46
10 -54 18 -55 24 -337 11 -471 -10 -90 -41 -241 -70 -330 -11 -36 -21 -67 -22
-70 -2 -5 -6 -16 -43 -105 -23 -57 -54 -117 -110 -215 -85 -148 -286 -375
-430 -484 -326 -248 -715 -378 -1115 -370 -142 2 -208 9 -352 38 -388 77 -786
335 -1043 676 -141 189 -274 480 -311 685 -6 33 -13 71 -16 85 -29 147 -25
471 6 610 6 25 13 56 15 70 3 14 16 65 31 114 132 456 471 860 901 1075 189
95 405 160 588 177 38 4 71 8 73 10 11 10 339 -6 421 -20z"/>
<path d="M7670 11640 c-64 -9 -125 -18 -160 -25 -14 -3 -34 -7 -45 -9 -71 -14
-238 -76 -340 -127 -452 -225 -776 -653 -864 -1144 -22 -122 -21 -102 -25
-265 -7 -279 53 -534 186 -788 127 -243 347 -474 591 -621 162 -98 380 -178
555 -206 17 -3 47 -8 65 -11 54 -10 307 -12 387 -2 408 47 778 242 1039 549
124 145 193 258 264 425 50 120 71 187 97 319 5 28 12 64 16 80 3 17 7 107 9
200 6 324 -66 592 -234 868 -226 372 -642 662 -1051 733 -14 2 -47 9 -75 15
-60 13 -338 19 -415 9z m345 -175 c22 -3 56 -8 75 -11 73 -9 227 -56 318 -96
411 -180 703 -520 823 -958 41 -148 54 -361 34 -540 -6 -58 -14 -96 -45 -220
-58 -230 -245 -519 -448 -692 -345 -296 -827 -410 -1272 -301 -522 129 -932
541 -1055 1062 -24 101 -25 107 -32 189 -18 207 2 402 59 572 12 36 23 70 24
77 4 24 85 187 114 230 17 24 30 46 30 49 0 7 46 69 100 133 233 280 592 474
940 507 36 4 66 8 68 9 5 4 229 -3 267 -10z"/>
<path d="M7710 11298 c-463 -48 -871 -357 -1044 -792 -243 -609 24 -1311 612
-1605 264 -132 563 -167 857 -100 145 33 346 125 460 211 324 245 515 616 517
1008 0 137 -6 196 -34 310 -80 333 -277 604 -570 788 -231 144 -518 209 -798
180z"/>
<path d="M10090 10070 c-4 -3 -7 -320 -5 -705 2 -639 3 -705 19 -755 59 -183
169 -272 386 -316 50 -10 265 -13 932 -13 l867 -1 0 129 -1 129 -842 0 c-810
1 -843 2 -886 20 -53 23 -83 53 -107 107 -16 37 -18 93 -20 715 -1 371 -2 680
-2 685 -1 10 -325 15 -341 5z"/>
<path d="M3650 10054 c-212 -31 -341 -126 -393 -289 -18 -57 -22 -92 -21 -190
0 -105 4 -128 26 -183 34 -81 59 -117 122 -170 81 -69 200 -127 311 -151 28
-7 61 -14 75 -18 14 -4 221 -8 460 -10 1010 -7 940 -5 988 -33 52 -30 77 -68
95 -146 28 -126 -11 -248 -93 -294 l-45 -25 -950 -2 c-522 -1 -959 -2 -970 -2
-19 -1 -20 -7 -20 -133 l0 -133 965 1 c531 0 992 3 1025 7 232 25 380 144 430
346 18 70 19 230 3 309 -31 148 -152 286 -313 357 -69 31 -200 65 -279 72 -33
3 -347 6 -696 7 -688 2 -667 1 -728 59 -76 73 -82 255 -11 327 54 54 43 53
1078 54 l956 1 2 126 2 126 -967 0 c-716 -1 -989 -4 -1052 -13z"/>
<path d="M1519 8076 c-2 -2 -33 -7 -69 -10 -95 -10 -295 -61 -397 -102 -428
-172 -759 -501 -928 -923 -20 -52 -38 -99 -39 -105 -1 -6 -10 -36 -19 -66 -50
-168 -73 -443 -52 -620 66 -568 404 -1052 912 -1304 128 -64 305 -124 417
-142 21 -3 48 -8 60 -10 103 -22 453 -21 519 1 7 2 30 7 52 10 108 16 293 79
425 145 79 40 233 135 262 163 7 7 35 30 62 51 244 197 445 514 530 837 26 97
30 115 46 221 16 108 5 399 -19 519 -52 260 -163 503 -324 709 -60 76 -181
199 -252 255 -27 22 -52 43 -55 46 -11 14 -150 99 -230 142 -148 78 -366 149
-530 171 -52 8 -365 18 -371 12z"/>
<path d="M11959 7816 c-1 -15 -1 -337 0 -356 1 -13 73 -15 606 -15 397 0 606
-3 608 -10 7 -20 -7 -437 -17 -515 -2 -14 -7 -61 -10 -105 -8 -95 -41 -327
-62 -440 -65 -344 -268 -1098 -325 -1206 -7 -15 17 -16 259 -15 l266 1 19 50
c33 86 109 307 129 375 29 96 48 163 52 180 2 8 9 35 16 60 7 25 13 52 15 60
2 8 10 42 19 75 18 71 51 226 66 310 5 33 12 71 15 85 3 14 8 43 10 65 3 22
10 65 15 95 5 30 12 80 15 110 3 30 8 66 10 80 3 14 7 60 10 102 3 42 8 92 10
110 6 48 17 305 19 428 l1 105 592 0 593 0 0 191 0 191 -1465 0 c-1058 0
-1465 -3 -1466 -11z"/>
<path d="M7630 7627 l0 -192 938 0 c880 -1 940 -2 994 -19 98 -32 159 -99 194
-214 14 -47 14 -237 0 -296 -18 -74 -81 -157 -144 -190 -69 -36 -114 -37
-1054 -38 l-928 0 0 -192 0 -191 918 0 c504 1 939 -3 966 -8 168 -29 252 -148
255 -361 4 -213 -76 -341 -234 -376 -34 -8 -336 -11 -977 -11 l-928 -1 0 -192
0 -191 963 1 c529 0 987 4 1017 8 462 59 677 297 678 752 1 221 -55 402 -162
521 l-44 49 44 50 c51 56 117 185 135 259 22 97 24 121 24 275 0 222 -34 341
-137 478 -85 115 -250 209 -418 241 -30 6 -71 13 -90 17 -19 4 -479 8 -1022
10 l-988 3 0 -192z"/>
<path d="M10835 7810 c-7 -11 -4 -2650 3 -2651 4 -1 116 -2 250 -3 l242 -1 0
1330 0 1330 -246 0 c-135 0 -247 -2 -249 -5z"/>
<path d="M3710 7573 l0 -192 1246 0 c1141 0 1251 -2 1298 -17 147 -48 218
-179 210 -388 -8 -184 -77 -290 -216 -333 -47 -15 -152 -17 -928 -18 -481 -1
-904 -5 -940 -9 -293 -35 -495 -161 -594 -370 -69 -144 -69 -150 -73 -671 l-4
-470 258 0 258 0 2 395 c1 217 4 418 7 446 14 134 84 233 192 273 54 21 78 23
294 24 197 2 238 0 251 -13 8 -8 48 -44 89 -80 40 -36 78 -70 84 -75 6 -6 74
-66 151 -135 215 -192 217 -194 235 -210 8 -8 74 -67 145 -130 72 -63 132
-117 135 -120 3 -3 86 -77 185 -165 99 -88 192 -171 208 -185 l27 -25 373 1
c204 1 374 2 376 3 2 0 -5 9 -16 19 -22 18 -181 164 -243 222 -32 30 -142 131
-229 209 -14 13 -49 44 -76 70 -28 25 -77 71 -110 101 -33 30 -108 98 -165
151 -58 53 -118 109 -135 124 -16 15 -68 62 -114 104 -46 42 -97 88 -114 104
l-31 27 30 0 c247 3 523 9 539 13 11 3 40 8 65 11 125 17 290 85 375 157 183
152 264 425 219 739 -38 267 -166 437 -399 531 -43 17 -87 33 -99 35 -11 2
-32 6 -46 9 -14 3 -34 7 -45 9 -11 2 -45 7 -75 12 -30 4 -628 8 -1327 8
l-1273 1 0 -192z"/>
<path d="M12486 4623 c-90 -161 -206 -344 -328 -516 -65 -91 -244 -321 -279
-357 -8 -8 -39 -44 -69 -79 -124 -146 -410 -432 -550 -551 -219 -185 -410
-330 -616 -466 -78 -51 -157 -102 -175 -113 -450 -259 -747 -396 -1149 -531
-270 -91 -589 -173 -815 -210 -33 -6 -71 -12 -85 -14 -47 -9 -245 -35 -310
-41 -36 -4 -75 -8 -88 -10 -157 -25 -893 -25 -1042 -1 -14 3 -56 7 -95 11 -38
3 -83 8 -100 10 -16 3 -48 7 -70 10 -77 10 -231 37 -330 56 -55 11 -111 23
-125 25 -43 9 -262 64 -320 81 -30 9 -61 18 -67 19 -7 1 -100 32 -207 68 -443
150 -777 312 -1281 619 -11 7 -22 15 -25 18 -3 3 -48 34 -100 69 -186 124
-461 341 -626 495 -432 401 -781 834 -1078 1332 l-78 132 -52 -21 c-112 -45
-261 -90 -336 -103 -19 -3 -36 -8 -39 -11 -6 -6 9 -34 108 -204 165 -285 408
-632 587 -840 12 -14 63 -73 113 -132 153 -179 431 -453 626 -618 55 -47 102
-87 105 -90 14 -15 203 -159 302 -231 697 -501 1471 -846 2308 -1028 52 -11
106 -23 120 -25 14 -3 50 -9 80 -15 30 -6 73 -13 95 -16 22 -2 49 -6 60 -9 27
-5 90 -14 143 -21 23 -3 59 -7 80 -10 20 -2 69 -7 107 -10 39 -3 81 -8 95 -10
160 -24 925 -24 1048 0 11 2 55 6 98 10 43 4 86 9 94 10 8 2 44 6 80 10 36 3
72 8 80 10 8 2 35 7 60 10 58 8 324 56 330 60 3 2 21 6 40 9 117 19 497 124
691 192 501 173 1030 436 1429 709 25 17 74 51 110 75 36 25 67 47 70 50 3 3
48 37 100 75 91 67 377 302 431 354 15 15 96 91 180 171 199 188 283 273 381
390 44 52 88 105 98 116 185 220 519 741 705 1099 31 61 61 114 66 120 5 5 9
13 9 17 0 4 -114 8 -254 8 l-253 0 -87 -157z"/>
</g>
</svg>
