<?xml version="1.0" standalone="no"?>
<!DOCTYPE svg PUBLIC "-//W3C//DTD SVG 20010904//EN"
 "http://www.w3.org/TR/2001/REC-SVG-20010904/DTD/svg10.dtd">
<svg version="1.0" xmlns="http://www.w3.org/2000/svg"
 width="1000.000000pt" height="1000.000000pt" viewBox="0 0 1000.000000 1000.000000"
 preserveAspectRatio="xMidYMid meet">
<metadata>
Created by potrace 1.14, written by Peter Selinger 2001-2017
</metadata>
<g transform="translate(0.000000,1000.000000) scale(0.100000,-0.100000)"
fill="#000000" stroke="none">
<path d="M4827 8123 c-2 -1 -41 -5 -87 -8 -47 -3 -101 -7 -120 -10 -19 -2 -60
-7 -90 -10 -67 -8 -89 -11 -160 -25 -30 -6 -71 -13 -90 -16 -19 -3 -78 -17
-130 -31 -52 -13 -105 -26 -118 -29 -28 -6 -229 -72 -257 -84 -11 -5 -54 -23
-96 -39 -304 -119 -697 -359 -967 -593 -61 -53 -333 -329 -382 -387 -78 -92
-191 -244 -185 -249 2 -3 16 3 30 12 24 16 27 16 52 -4 32 -25 50 -25 88 0 17
11 41 20 55 20 24 0 24 -1 -10 -30 -33 -29 -149 -90 -170 -90 -5 0 -7 7 -4 15
7 18 -18 16 -53 -3 -20 -11 -23 -10 -23 7 0 11 -4 23 -10 26 -5 3 -10 -1 -10
-9 0 -8 -7 -22 -16 -31 -9 -8 -13 -23 -10 -32 4 -9 9 -13 13 -10 10 11 32 -13
26 -29 -4 -12 0 -13 23 -4 15 6 37 10 48 9 40 -3 57 1 51 11 -3 6 6 15 20 20
37 14 47 12 43 -7 -3 -10 4 -35 14 -55 10 -21 18 -41 18 -47 0 -5 -19 -17 -42
-26 -24 -9 -54 -22 -68 -28 -14 -6 -27 -11 -30 -12 -3 -1 -23 -9 -45 -19 -22
-10 -73 -20 -114 -23 -73 -6 -73 -6 -62 15 7 12 18 22 26 22 18 0 20 16 3 23
-15 6 29 47 75 73 38 20 29 27 -14 12 -42 -14 -72 -47 -110 -120 l-29 -58 37
4 c21 1 61 -6 90 -16 51 -17 53 -17 85 1 45 27 175 69 235 77 59 7 60 8 97 58
36 47 85 96 100 97 48 5 75 -13 56 -36 -9 -10 -10 -19 -3 -26 6 -6 21 9 43 43
39 60 74 91 107 96 26 3 29 -9 11 -59 -14 -41 -57 -81 -123 -114 -27 -14 -61
-34 -75 -44 -24 -19 -24 -21 -6 -34 17 -13 13 -19 -70 -103 -199 -201 -194
-195 -179 -232 8 -18 14 -35 15 -38 0 -3 30 -7 67 -9 38 -2 82 -7 98 -10 17
-4 36 -8 42 -8 9 0 12 -18 10 -58 -2 -66 3 -75 32 -57 28 17 34 33 36 108 2
61 6 71 71 178 69 113 139 197 202 241 l33 23 24 -28 24 -27 -22 -38 c-12 -21
-19 -41 -15 -44 15 -15 69 9 110 47 l42 40 12 -45 c14 -54 48 -112 70 -121 14
-5 12 -10 -10 -27 -38 -30 -33 -42 14 -34 22 4 40 4 40 1 0 -13 -53 -86 -62
-86 -5 0 -6 -4 -3 -10 3 -5 1 -10 -5 -10 -7 0 -25 -11 -41 -24 -16 -14 -80
-56 -142 -95 -115 -71 -184 -127 -102 -82 22 12 55 33 74 46 52 38 77 32 46
-9 -40 -53 0 -81 52 -35 19 16 37 28 40 25 9 -8 -55 -93 -99 -130 -47 -41 -68
-45 -75 -16 -8 29 -17 25 -32 -15 -7 -21 -53 -76 -115 -137 -74 -73 -106 -112
-111 -135 -3 -19 -13 -33 -21 -33 -9 0 -14 -12 -15 -37 -1 -52 -16 -86 -72
-170 -49 -72 -76 -139 -72 -180 2 -27 -7 -29 -26 -7 -41 49 -134 60 -214 25
-172 -76 -239 -259 -136 -368 18 -19 25 -21 51 -11 17 5 41 7 54 4 20 -5 26
-1 35 22 12 33 27 50 65 80 62 47 81 19 53 -78 -18 -60 -16 -76 8 -73 11 2 33
5 48 7 47 6 65 -4 78 -43 15 -42 14 -78 -2 -97 -9 -11 -6 -14 12 -15 53 -2 75
-6 97 -18 44 -24 22 -45 -48 -44 -70 1 -127 46 -100 78 13 15 4 22 -36 29 -16
3 -38 8 -49 10 -26 5 -145 15 -270 22 -55 3 -111 7 -125 8 -14 2 -37 4 -51 4
-28 2 -79 47 -148 130 -58 71 -76 80 -101 50 -21 -26 -13 -43 25 -52 27 -7 35
-36 10 -36 -24 0 -68 26 -85 49 -32 45 -34 20 -15 -139 4 -31 8 -66 20 -185
39 -373 258 -913 529 -1304 138 -198 354 -440 535 -598 24 -21 53 -46 65 -57
35 -31 207 -160 271 -203 152 -102 372 -225 515 -287 36 -16 83 -36 105 -46
178 -77 425 -151 685 -205 31 -6 106 -18 130 -20 14 -1 50 -6 80 -10 92 -12
101 -13 205 -21 179 -15 584 -9 715 11 14 2 48 6 75 10 376 46 840 199 1180
389 22 12 67 37 100 55 33 18 67 39 76 47 8 8 19 14 23 14 14 0 278 187 332
235 6 6 33 29 60 51 90 77 99 85 194 178 102 100 192 199 249 274 19 26 37 49
40 52 49 43 242 349 338 535 79 153 220 520 239 625 3 14 7 33 10 42 6 19 14
55 19 83 2 11 6 31 9 45 3 14 7 43 11 65 3 22 8 54 10 70 17 105 27 303 29
558 l2 239 -28 20 c-26 18 -31 47 -6 32 6 -4 9 -1 6 7 -3 8 -27 22 -54 32 -63
24 -267 79 -343 92 -19 3 -42 10 -52 16 -11 5 -19 7 -19 5 0 -8 -171 53 -207
74 l-33 19 7 -57 c3 -31 12 -71 20 -90 14 -33 15 -34 60 -28 26 3 68 19 96 36
26 16 51 30 54 30 8 0 62 -61 84 -95 39 -61 15 -146 -55 -194 -35 -24 -146
-84 -153 -82 -15 2 -81 -38 -115 -70 -73 -69 -161 -59 -240 29 -35 38 -128
217 -128 245 0 7 -6 21 -14 32 -7 11 -13 22 -12 26 0 3 -14 35 -33 72 -32 63
-98 137 -121 137 -27 0 -18 -36 24 -104 67 -107 83 -151 85 -233 1 -15 37 -59
104 -125 96 -96 137 -154 137 -192 0 -37 61 -39 189 -6 41 10 78 17 82 14 7
-4 -36 -147 -60 -199 -5 -11 -15 -35 -22 -53 -19 -52 -81 -144 -124 -184 -22
-20 -67 -51 -102 -68 -95 -48 -108 -76 -107 -220 0 -63 3 -149 6 -190 7 -114
-3 -141 -96 -239 -109 -115 -128 -141 -200 -279 -35 -65 -81 -143 -103 -173
-48 -64 -83 -127 -83 -151 0 -9 -31 -47 -68 -85 -84 -84 -88 -87 -163 -125
-75 -39 -171 -44 -234 -12 -38 19 -40 21 -56 104 -10 47 -26 117 -37 155 -84
295 -101 388 -96 516 3 90 17 148 48 198 46 74 30 137 -70 289 -113 169 -116
183 -75 289 30 80 15 133 -38 133 -14 1 -63 16 -109 34 -104 41 -136 40 -259
-9 -78 -31 -140 -42 -208 -35 -58 6 -153 -6 -172 -21 -9 -8 -36 0 -100 29 -48
23 -105 44 -125 47 -39 7 -47 22 -26 43 16 16 -10 43 -61 67 -21 9 -38 22 -38
28 1 47 -5 56 -59 83 -79 40 -90 58 -88 135 2 56 16 178 30 262 14 87 87 211
161 277 48 42 139 90 170 90 13 0 27 18 46 63 27 62 93 142 151 182 15 11 38
27 49 36 19 15 23 15 45 1 32 -21 152 -24 245 -6 39 8 85 17 101 20 16 2 32 6
35 8 12 8 118 18 172 18 67 -1 142 -28 131 -47 -4 -8 -5 -38 -4 -68 l4 -55 81
-22 c80 -21 167 -63 167 -79 0 -5 21 -4 48 0 109 21 308 29 402 16 62 -8 144
-34 185 -58 36 -21 38 -20 35 18 -2 27 19 67 60 113 16 19 29 41 28 49 -2 8
-24 26 -50 39 -51 26 -179 39 -223 22 -19 -7 -30 -4 -58 18 -67 53 -96 94 -92
130 1 12 1 22 1 23 -10 5 -94 9 -112 5 -22 -6 -23 -9 -13 -28 7 -12 21 -30 33
-40 14 -12 17 -20 10 -25 -7 -5 -13 -16 -15 -26 -2 -10 -7 -18 -11 -18 -5 1
-17 1 -28 1 -35 0 -97 73 -117 138 -19 61 -36 80 -162 174 -41 31 -96 37 -127
13 -19 -14 -19 -14 1 -15 24 0 71 -41 80 -68 3 -11 18 -22 36 -26 35 -7 95
-46 116 -75 8 -12 11 -21 6 -20 -38 6 -54 -5 -88 -61 -20 -33 -41 -60 -46 -60
-24 0 -80 31 -77 42 3 7 25 15 50 18 91 11 88 23 -29 112 -144 110 -190 132
-275 135 -70 2 -158 -24 -158 -47 0 -6 -38 -48 -84 -93 -46 -45 -91 -94 -100
-108 -16 -25 -18 -26 -113 -23 -53 1 -108 6 -122 10 -14 4 -29 8 -33 9 -5 2
-15 3 -23 4 -8 0 -24 10 -35 21 -18 18 -20 30 -15 103 4 76 17 153 28 163 10
10 77 6 156 -11 96 -19 143 -14 164 18 20 30 10 45 -63 102 -44 34 -60 53 -60
71 0 19 5 24 28 25 15 0 36 2 47 5 11 2 40 6 65 8 35 3 54 13 87 43 22 21 84
60 136 86 101 52 146 85 129 96 -6 4 -13 19 -16 34 -4 22 2 32 30 54 41 31 54
22 54 -35 0 -47 15 -69 54 -82 43 -14 92 -16 181 -6 97 11 105 17 105 75 0 39
4 50 19 54 10 2 25 1 32 -4 16 -10 56 -12 46 -3 -14 15 24 63 55 70 18 4 36 9
41 10 4 1 13 2 20 3 7 0 21 7 30 14 14 10 -1 12 -87 10 -116 -2 -144 9 -164
64 -13 38 -2 61 47 105 47 42 52 59 14 52 -33 -6 -130 -53 -144 -70 -6 -8 -13
-33 -15 -56 -9 -105 -15 -174 -18 -188 -4 -23 -37 -90 -46 -90 -4 0 -31 22
-61 50 -103 95 -123 105 -205 105 l-72 -1 -20 47 -20 47 26 44 c35 58 46 68
78 68 16 0 47 7 70 16 38 14 43 21 49 55 5 27 19 49 51 78 24 23 47 41 51 41
5 0 25 16 46 35 21 19 48 35 60 36 12 0 31 2 42 4 11 2 49 5 85 8 36 3 72 8
81 12 8 3 26 -3 39 -15 25 -22 97 -45 170 -55 132 -18 172 -31 210 -68 16 -16
30 -40 30 -52 0 -33 -39 -39 -128 -20 -41 8 -77 15 -81 15 -4 0 12 -21 36 -46
24 -26 43 -51 43 -55 0 -5 15 -9 33 -9 30 1 31 1 13 15 -23 17 -15 31 11 19
31 -14 77 -10 116 9 48 23 51 32 32 87 -12 35 -13 45 -3 52 23 14 37 8 64 -29
16 -21 31 -42 36 -47 4 -5 24 9 45 33 22 24 55 48 78 56 37 12 40 12 43 -5 3
-16 11 -18 65 -13 34 3 64 7 67 10 5 5 -88 92 -210 197 -404 344 -852 575
-1361 700 -57 14 -122 28 -144 32 -22 3 -43 8 -46 10 -4 2 -31 6 -60 10 -30 3
-57 8 -60 10 -3 2 -35 6 -70 10 -35 3 -67 8 -70 10 -3 1 -50 6 -105 10 -54 3
-107 10 -116 15 -10 6 -19 5 -23 -1 -4 -6 -11 -7 -17 -4 -10 6 -336 13 -341 7z
m-129 -378 c2 -2 -15 -16 -39 -32 -75 -50 -78 -53 -154 -117 -29 -24 -29 -25
-7 -26 19 0 21 -3 12 -19 -5 -11 -19 -23 -31 -26 -11 -4 -18 -9 -16 -12 3 -2
14 0 25 6 15 8 21 8 25 -2 5 -16 -13 -70 -27 -79 -6 -4 -7 -8 -2 -8 19 0 -82
-58 -112 -65 -48 -10 -47 -21 3 -35 58 -16 76 -37 50 -56 -10 -8 -29 -15 -42
-15 -13 -1 -32 -3 -43 -4 -11 -1 -27 -3 -36 -4 -8 0 -12 -6 -9 -12 4 -6 19 -7
37 -4 27 6 28 5 18 -12 -7 -10 -34 -33 -61 -52 -27 -18 -49 -37 -49 -42 0 -5
-3 -8 -7 -7 -15 3 -43 -14 -37 -23 3 -5 2 -8 -3 -7 -12 3 -65 -28 -95 -57 -15
-14 -31 -26 -35 -26 -5 0 -20 -11 -35 -25 -15 -13 -31 -24 -35 -24 -5 0 -37
-28 -73 -61 -36 -34 -59 -58 -51 -54 9 5 12 4 7 -3 -4 -7 -14 -12 -22 -12 -8
0 -14 -4 -14 -10 0 -5 -8 -19 -17 -29 -40 -44 -75 -109 -67 -123 3 -4 1 -8 -3
-8 -5 0 -14 -15 -21 -32 -6 -18 -22 -46 -35 -62 -21 -26 -31 -29 -83 -31 -115
-4 -132 19 -141 193 -5 91 -5 93 21 113 15 12 25 24 22 27 -3 3 2 11 12 19 16
13 15 13 -4 4 -11 -5 -26 -6 -32 -2 -20 12 -3 41 23 41 13 0 27 5 31 12 7 11
-15 9 -74 -8 -18 -5 -22 -3 -19 12 1 11 11 31 21 46 37 56 -2 83 -94 63 -19
-4 -41 -8 -47 -8 -7 0 -13 -3 -13 -7 0 -4 -6 -7 -12 -7 -7 0 -25 -4 -39 -8
-35 -9 -45 9 -18 33 22 21 13 37 -11 21 -20 -12 -61 -11 -57 1 3 15 117 130
128 130 5 0 9 3 9 8 0 4 14 15 31 25 18 10 29 20 26 23 -6 6 -58 -24 -69 -41
-4 -5 -8 -7 -8 -2 0 4 -28 -13 -62 -38 -35 -25 -77 -53 -94 -61 -24 -13 -31
-23 -32 -47 0 -20 -11 -39 -31 -58 -17 -15 -31 -26 -31 -23 0 3 -6 -1 -14 -8
-7 -7 -24 -20 -36 -28 -13 -8 -35 -25 -50 -37 -15 -13 -33 -23 -39 -23 -6 0
-11 -4 -11 -10 0 -5 7 -7 16 -3 37 14 6 -20 -41 -45 -28 -15 -53 -31 -57 -37
-4 -5 -8 -7 -8 -3 0 4 -24 -1 -52 -11 -95 -32 -105 -33 -111 -10 -3 12 -10 18
-16 14 -19 -11 -12 20 9 37 16 14 74 48 82 48 18 1 48 14 48 22 0 5 4 7 8 4 9
-6 39 11 31 18 -2 3 -23 -4 -47 -14 -45 -20 -48 -19 -56 27 -9 50 59 105 134
107 33 0 36 3 34 28 -1 16 0 36 3 46 4 17 82 67 130 85 13 5 23 14 23 19 0 6
3 9 6 5 4 -3 19 0 35 9 16 8 30 14 31 13 2 -1 23 5 48 12 25 7 50 13 55 15 6
1 30 7 55 14 25 7 52 14 60 15 8 2 15 4 15 5 0 2 22 7 60 15 58 11 215 67 215
76 0 5 3 8 8 7 14 -4 52 14 52 24 0 6 3 8 7 5 6 -7 73 30 85 47 4 6 8 8 8 3 0
-4 35 14 78 41 42 26 100 59 127 72 28 14 53 30 57 35 4 6 8 7 8 3 0 -4 20 1
45 12 25 11 45 17 45 13 0 -3 7 0 15 7 8 7 15 10 15 6 0 -3 17 3 39 14 21 12
48 23 60 25 11 3 31 7 44 10 49 12 147 14 147 4 0 -6 5 -7 10 -4 6 3 10 1 10
-5 0 -17 69 -9 108 12 17 10 32 15 32 12 0 -3 8 -1 17 4 15 9 62 7 71 -3z
m1698 -137 c7 -8 -47 -49 -56 -43 -5 3 -11 1 -14 -3 -3 -5 -17 -8 -31 -7 -14
2 -25 1 -25 -1 0 -6 53 -28 63 -25 5 1 7 -4 5 -11 -5 -14 -16 -15 -113 -19
-51 -1 -82 2 -160 15 -29 5 -75 30 -72 39 5 17 88 56 109 52 10 -2 19 -1 22 3
5 8 264 8 272 0z m-1722 -426 c9 -14 -39 -76 -81 -103 -38 -25 -103 -52 -103
-43 0 3 -8 0 -17 -5 -28 -14 -93 -22 -93 -11 0 6 -6 10 -14 10 -31 0 -11 39
31 61 24 12 43 27 43 32 0 6 3 7 7 4 3 -4 21 2 38 13 63 39 175 64 189 42z
m-2101 -330 c14 -21 -2 -32 -48 -32 -34 0 -43 3 -39 14 11 29 72 42 87 18z
m426 -72 c10 -5 21 -6 25 -3 3 3 6 2 6 -4 0 -6 23 -20 50 -32 51 -22 61 -35
35 -45 -31 -12 -13 -21 46 -23 70 -2 94 -15 78 -44 -5 -10 -6 -19 -2 -19 4 -1
-5 -8 -22 -17 -25 -14 -56 -19 -132 -22 -13 -1 -25 -31 -29 -71 -1 -14 -3 -27
-4 -30 -1 -3 -2 -9 -1 -13 1 -5 -3 -6 -8 -3 -5 3 -14 -1 -21 -9 -8 -10 -9 -15
-2 -15 6 0 16 -9 22 -20 13 -25 -2 -43 -40 -49 -14 -2 -31 -4 -39 -6 -13 -1
-33 2 -116 18 -19 4 -60 39 -50 43 6 2 33 20 60 40 43 30 50 40 52 72 7 135 5
145 -24 120 -19 -15 -121 -66 -138 -68 -5 -1 -14 -5 -20 -9 -11 -9 -62 -24
-85 -25 -10 -1 -14 7 -12 22 2 12 -2 22 -7 22 -21 0 -11 31 18 58 16 15 30 33
33 41 2 8 19 15 36 17 18 2 42 13 54 24 12 11 28 20 35 20 7 0 13 4 13 8 0 5
14 9 31 10 28 1 30 -1 25 -26 -4 -15 -3 -22 1 -16 4 6 16 13 25 17 9 3 15 14
14 24 -2 10 -1 22 1 26 6 9 67 1 92 -13z m2595 -25 c3 -10 -1 -15 -11 -15 -19
0 -12 -10 9 -14 7 -1 19 -5 26 -9 6 -5 16 -6 21 -3 5 3 12 -1 15 -9 3 -9 -3
-20 -13 -27 -18 -11 -18 -13 -3 -37 9 -14 22 -32 29 -39 7 -7 13 -18 13 -24 0
-6 3 -9 6 -6 3 3 19 -7 35 -23 16 -16 36 -29 45 -29 12 0 12 -4 4 -20 -6 -11
-8 -20 -4 -20 3 0 2 -6 -4 -12 -5 -7 -8 -23 -6 -35 2 -13 -1 -23 -6 -24 -46
-5 -243 -3 -246 3 -2 3 8 16 23 28 27 21 27 21 5 27 -27 7 -28 14 -2 39 44 41
54 54 57 74 1 11 0 20 -5 21 -4 1 -19 2 -34 3 -14 0 -29 3 -32 6 -3 3 -8 34
-12 70 -6 55 -4 65 12 77 24 18 70 17 78 -2z m-3084 -67 c-29 -23 -60 -23 -60
0 1 24 22 50 51 60 21 8 24 6 27 -16 3 -18 -3 -32 -18 -44z m110 46 c0 -13
-37 -34 -61 -34 -19 0 -8 26 18 42 30 18 43 15 43 -8z m10 -52 c0 -4 -18 -26
-40 -47 -22 -21 -40 -45 -40 -52 0 -7 -5 -13 -11 -13 -7 0 -9 -9 -6 -21 7 -27
-1 -49 -19 -49 -7 0 -18 -8 -23 -19 -6 -10 -22 -21 -35 -23 -14 -3 -23 -2 -21
3 3 4 1 10 -5 14 -6 4 -4 15 6 31 18 27 14 30 -16 12 -15 -10 -24 -9 -45 2
-25 13 -25 15 -9 27 10 7 15 13 12 13 -12 0 68 79 82 80 42 6 51 -7 24 -34 -8
-9 -11 -16 -4 -16 6 0 24 21 40 47 17 26 30 43 30 38 0 -5 5 -4 12 3 13 13 68
17 68 4z m2864 -92 c-3 -19 -9 -36 -14 -38 -6 -2 -10 -13 -10 -24 0 -12 -3
-19 -6 -15 -3 3 -17 -5 -29 -17 -24 -24 -62 -28 -112 -11 -30 10 -29 18 2 35
14 8 21 16 17 19 -14 9 -24 49 -13 55 5 3 27 8 49 11 22 3 50 9 62 13 46 17
58 10 54 -28z m-2256 -549 c10 -6 10 -10 -3 -21 -28 -23 -19 -42 19 -35 18 4
36 3 39 -2 10 -16 17 -67 12 -84 -6 -16 -50 -19 -74 -5 -12 8 -91 -39 -91 -55
0 -17 -28 3 -34 24 -7 28 19 81 66 131 21 23 38 44 38 49 0 9 12 9 28 -2z
m2875 -13 c4 -12 1 -28 -5 -35 -8 -10 -7 -12 5 -7 14 5 16 -1 12 -37 -5 -47
-15 -62 -43 -64 -14 -1 -18 6 -19 34 0 20 -2 43 -4 51 -3 10 3 14 15 13 13 -1
15 2 7 10 -6 6 -11 21 -11 34 0 31 35 31 43 1z m-3508 -1232 c37 -9 75 -27 75
-35 0 -4 -12 -11 -27 -17 -27 -10 -80 -1 -109 18 -16 10 -75 13 -101 4 -18 -6
-23 -4 -23 10 0 10 3 14 6 11 4 -3 15 0 26 7 19 14 100 15 153 2z m527 -261
c10 -4 16 -10 13 -14 -6 -11 43 -37 95 -51 55 -15 60 -16 140 -26 69 -9 79
-10 95 -14 6 -1 15 -3 20 -4 6 0 31 -10 56 -20 48 -20 99 -81 99 -118 0 -19 3
-20 59 -22 19 -1 36 -7 38 -13 4 -10 11 -9 33 2 15 8 29 13 31 11 2 -2 19 -6
38 -9 31 -5 75 -35 94 -64 6 -9 14 -10 35 -2 89 35 302 22 358 -22 6 -5 14 -6
17 -2 4 3 7 1 7 -5 0 -7 6 -12 14 -12 17 0 83 -72 98 -108 7 -15 12 -56 13
-91 1 -54 -2 -67 -22 -89 -12 -13 -20 -28 -18 -32 3 -4 -2 -11 -11 -14 -12 -5
-14 -15 -10 -44 7 -43 14 -76 16 -79 3 -4 5 -11 15 -58 13 -56 12 -55 14 -57
5 -6 12 -66 14 -113 l2 -50 -80 -39 c-76 -37 -157 -86 -143 -86 4 0 -7 -13
-23 -29 -28 -29 -39 -71 -18 -71 5 0 8 -4 4 -9 -3 -5 -1 -12 5 -16 15 -9 43
-66 46 -93 2 -22 -28 -48 -44 -38 -4 2 -8 -4 -8 -15 0 -10 3 -19 7 -19 3 0 6
-33 6 -72 1 -92 -13 -109 -84 -103 -40 3 -45 2 -31 -9 23 -17 32 -78 18 -120
-8 -26 -21 -39 -51 -52 -26 -12 -35 -20 -26 -26 6 -4 8 -8 4 -8 -4 0 -3 -8 2
-19 6 -10 7 -22 3 -26 -4 -3 -8 -11 -8 -16 -1 -5 -2 -13 -3 -17 0 -5 -10 -19
-20 -31 -16 -19 -18 -27 -9 -47 6 -13 14 -24 18 -24 4 0 10 -10 13 -22 9 -41
67 -191 78 -205 6 -7 8 -13 5 -13 -9 0 43 -99 69 -131 26 -32 89 -80 112 -84
10 -2 19 -4 21 -5 1 -2 5 -3 10 -4 4 -1 12 -4 17 -7 6 -3 22 -5 38 -4 15 0 27
-2 27 -5 0 -10 -29 -46 -30 -36 0 5 -6 3 -14 -4 -21 -16 -109 -38 -143 -35
-106 11 -216 62 -303 142 -14 13 -28 23 -32 23 -5 0 -8 5 -8 10 0 6 -9 19 -20
30 -16 16 -18 24 -9 50 15 42 6 64 -21 50 -34 -18 -45 0 -46 73 -1 77 -35 160
-63 155 -9 -2 -29 12 -44 32 -15 19 -34 42 -41 51 -20 24 -111 208 -126 254
-7 22 -17 49 -23 60 -6 11 -12 25 -13 30 -2 9 -33 90 -57 145 -6 14 -11 27
-12 30 -19 48 -31 70 -37 70 -4 0 -8 6 -8 14 0 8 -7 21 -15 30 -9 8 -16 18
-16 21 1 13 -14 41 -28 53 -13 11 -13 12 -1 6 12 -6 12 -4 -1 12 -9 10 -22 30
-29 44 -21 39 -70 182 -65 189 2 4 -24 20 -58 35 -34 16 -70 36 -81 45 -10 9
-20 15 -22 13 -3 -2 -27 11 -54 27 -28 17 -52 30 -54 28 -2 -1 -14 9 -26 23
-12 14 -18 18 -14 10 5 -8 -9 2 -30 23 -22 20 -46 37 -54 37 -9 0 -13 3 -10 6
4 3 -13 25 -37 50 -24 24 -58 63 -75 87 -29 40 -31 51 -35 143 -2 54 -7 119
-10 144 -4 25 -8 56 -10 70 -4 31 -34 121 -46 135 -12 15 6 39 24 32 9 -3 21
1 27 9 7 8 9 14 6 14 -4 0 0 7 8 16 9 8 16 22 16 30 0 8 5 14 10 14 5 0 9 3 7
8 -4 13 46 60 75 71 26 10 27 9 24 -24 -1 -19 -1 -35 0 -35 9 0 80 36 85 43 3
5 8 8 10 6 2 -1 36 5 74 14 114 26 115 27 147 12z m4585 -775 c12 -62 4 -104
-48 -225 -7 -16 -13 -32 -14 -35 -1 -3 -9 -23 -19 -45 -10 -22 -24 -56 -31
-76 -36 -100 -79 -149 -130 -149 -21 0 -35 6 -39 16 -3 8 -10 13 -15 10 -12
-8 -23 55 -16 94 9 53 10 55 16 60 11 9 57 118 64 151 10 46 54 139 66 139 6
0 7 5 3 12 -4 6 -3 8 4 4 6 -3 18 4 26 16 9 12 16 19 16 15 0 -14 58 52 65 74
l7 22 19 -24 c10 -13 22 -40 26 -59z"/>
<path d="M2858 6874 c-38 -20 -36 -28 2 -9 17 9 30 18 30 20 0 7 -1 6 -32 -11z"/>
<path d="M1565 4783 c10 -53 37 -108 55 -108 38 0 11 99 -36 130 l-25 16 6
-38z"/>
</g>
</svg>
