<?xml version="1.0" encoding="utf-8"?>
<!-- Generator: Adobe Illustrator 27.4.0, SVG Export Plug-In . SVG Version: 6.00 Build 0)  -->
<svg version="1.1" id="Layer_1" xmlns="http://www.w3.org/2000/svg" xmlns:xlink="http://www.w3.org/1999/xlink" x="0px" y="0px"
	 width="357.2px" height="296.6px" viewBox="0 0 357.2 296.6" style="enable-background:new 0 0 357.2 296.6;" xml:space="preserve"
	>
<style type="text/css">
	.st0{fill:#F26522;}
	.st1{fill:none;stroke:#E6C619;stroke-width:5.1149;stroke-miterlimit:10;}
	.st2{fill:none;stroke:#FFF200;stroke-width:4.1431;stroke-miterlimit:10;}
	.st3{fill:#FFF200;stroke:#FFF200;stroke-width:1.9248;stroke-miterlimit:10;}
	.st4{fill-rule:evenodd;clip-rule:evenodd;fill:#FFFFFF;stroke:#1C75BC;stroke-width:3.5614;stroke-miterlimit:10;}
	.st5{fill-rule:evenodd;clip-rule:evenodd;fill:#FFFFFF;}
	.st6{fill-rule:evenodd;clip-rule:evenodd;fill:#1C75BC;}
	.st7{fill:#E6C619;}
</style>
<path class="st0" d="M118.8,177.1h-9.2c-5.5,0-8.3,3-8.3,9.1v18.2H88.9v-18.2c0-12.2,6.9-18.2,20.7-18.2h37.2c5.5,0,8.3-3,8.3-9.1
	c0-6.1-2.8-9.1-8.3-9.1H88.9v-9.1h57.9c13.8,0,20.7,6.1,20.7,18.2c0,12.2-6.9,18.2-20.7,18.2h-9.2l29.9,27.4h-18L118.8,177.1z"/>
<path class="st0" d="M246.8,184.9c0,12.2-6.9,18.2-20.7,18.2H183V194h43.2c5.5,0,8.3-3,8.3-9.1s-2.8-9.1-8.3-9.1H183v-9.1h43.2
	c5.5,0,8.3-3,8.3-9.1c0-6.1-2.8-9.1-8.3-9.1H183v-9.1h43.2c13.8,0,20.7,6.1,20.7,18.2c0,6.1-1.7,10.6-5.2,13.7
	C245.1,174.3,246.8,178.9,246.8,184.9z"/>
<rect x="259.8" y="139.4" class="st0" width="11.9" height="63.8"/>
<path class="st0" d="M94.9,110c-9.5,0-14-4.5-14-4.5c-2.3-1.9-3.5-4.8-3.5-8.6c0-7.6,4.6-11.5,13.9-11.5h44.5v6H91.3
	c-3.7,0-5.6,1.1-5.6,4.9c0,3.8,1.9,5.7,5.6,5.7l27.2,0c10.1,0,14,4.8,14,4.8c2.3,2,3.5,5.1,3.5,9.2c0,8.2-4.6,12.3-13.9,12.3H77.5
	V122H122c3.7,0,5.6-1.8,5.6-5.9c0-4.1-1.9-6.1-5.6-6.1L94.9,110z"/>
<path class="st0" d="M250.2,85.2v30.7c0,4.1,1.9,6.1,5.6,6.1h39v6.1h-39c-9.3,0-13.9-4.1-13.9-12.3V85.2H250.2z"/>
<path class="st1" d="M233.2,86.1c0,24.9-20.2,45.1-45.1,45.1c-24.9,0-45.1-20.2-45.1-45.1c0-24.9,20.2-45.1,45.1-45.1
	C213,41,233.2,61.2,233.2,86.1z"/>
<path class="st2" d="M224.6,86c0,20.2-16.4,36.5-36.5,36.5c-20.2,0-36.5-16.4-36.5-36.5c0-20.2,16.4-36.5,36.5-36.5
	C208.2,49.4,224.6,65.8,224.6,86z"/>
<path class="st3" d="M217.6,86.1c0,16.3-13.2,29.5-29.5,29.5c-16.3,0-29.5-13.2-29.5-29.5c0-16.3,13.2-29.5,29.5-29.5
	C204.4,56.6,217.6,69.8,217.6,86.1z"/>
<path class="st4" d="M77.5,172.7c0,20.9-17,37.9-37.9,37.9s-37.9-17-37.9-37.9c0-20.9,17-37.9,37.9-37.9S77.5,151.8,77.5,172.7z"/>
<g>
	<path class="st5" d="M36.2,145.5c-0.4,1.3-1.8,1.7-3.2,1.9c0.1-0.3-0.2-0.2-0.4-0.2c0.1-0.1,0.2-0.3,0-0.4
		C33.7,146.4,34.7,145.2,36.2,145.5z"/>
	<path class="st5" d="M13,149.2c0,0.1,0,0.2,0,0.4c-0.3,0.1-0.6,0.1-1,0C12.1,149.2,12.5,149.2,13,149.2z"/>
	<path class="st5" d="M48.1,154.4c-0.9,0-1.8,0-2.8,0c0.2-0.2,0.2-0.5,0.6-0.5c-0.1-0.2-0.3-0.2-0.5-0.4c0.2-0.5,1-0.5,0.8-1.3
		c0-0.3-0.6,0-0.8-0.1c0.2-0.7-0.8-2,0.8-1.8c0.1,0.3-0.2,0.2-0.2,0.5c0.4,0,0.7,0.1,1,0.2c-0.1,0.2-0.2,0.4-0.5,0.4
		c0.5,0.7,0.9,1.5,1.8,1.8C48.1,153.5,48,153.9,48.1,154.4z"/>
	<path class="st5" d="M12.5,150.4c0.1,0.7-0.3,0.9-0.8,1C11.6,150.8,12,150.5,12.5,150.4z"/>
	<path class="st5" d="M13.4,150.4c0.1,0.5-0.3,0.6-0.7,0.6C12.9,150.8,13,150.4,13.4,150.4z"/>
	<path class="st5" d="M11.9,152.5c0.5-0.3,0.6-1.6,1.7-1.2c-0.3,0.6-1.4,1-1,1.9c-0.6,0-0.5,0.7-1.1,0.6c-0.3-0.3,0.1-0.5,0.1-0.8
		c-0.2-0.3-0.3,0.4-0.7,0.2c-0.1-0.1-0.2-0.2-0.4-0.2c0.6-0.3,0.6-1.3,1.6-1.2C12.2,152.1,11.8,152,11.9,152.5z"/>
	<path class="st5" d="M45.2,152c0,1.1-1.1,2.2-2,1.3c0.1-0.2,0.3-0.2,0.5-0.4c-0.1-0.2-0.3-0.3-0.2-0.7
		C44,152.3,44.7,151.9,45.2,152z"/>
	<path class="st5" d="M20.2,158.6c0.4,0.2-0.2,0.3-0.1,0.6c0.1,0.4,0.4,0,0.8,0.1c0.1,0.3,0.2,0.6,0.1,1.1c-0.2-0.1-0.8,0.2-0.7-0.2
		c-0.5,0.2-0.9,0.6-1.3,0.8C18.5,160.2,19.6,159.1,20.2,158.6z"/>
	<path class="st5" d="M51.5,158.6c0.1,0,0.2,0,0.4,0c0.1,0.1,0.2,0.3,0.1,0.6C51.6,159.3,51.6,159,51.5,158.6z"/>
	<path class="st5" d="M51.4,159.3c0.2,0,0.5,0,0.7,0c0,0.6,0,1.1-0.6,1.1C51.6,159.9,51.4,159.7,51.4,159.3z"/>
	<path class="st6" d="M1.8,172.8c0.3-0.1,1.3,1.2,0.7,1.7C1.9,174.3,2,173.4,1.8,172.8z"/>
	<path class="st5" d="M14.2,173.4c-0.9,0.9-1.7-0.8-3,0.1C11.6,172.5,13.4,173,14.2,173.4z"/>
	<path class="st5" d="M19,175.9c1.2,2,5.6,0.2,5.9,3.2c0.4,0.1,1.2-0.2,1.1,0.4c0.6-0.7,1.9-0.1,2.2,0.6c2.2-0.9,6.6-0.2,5.9,3.4
		c-0.3,0.3-0.4,0.7-0.7,1c0.2,1.5,0.8,2.6,0.7,4.4c-1.1,0.7-2.5,1-3,2.3c0,0.7,0.9,1.3,0.7,1.8c0.1,0.4-0.5,0.1-0.6,0.4
		c0.2,0.7,0.4,1.7,0,2.3c-0.4,0.2-0.8,0-1.3,0c0.9,0.6,0.7,2.3-0.6,2.3c0.1,0.2,0.1,0.5,0.4,0.6c-0.2,0.3-0.1,1.1-0.7,1.1
		c1.4,2.2,1.2,6.1,4.8,6.2c-2.3,1.9-5-0.1-6.2-1.7c0-0.4,0.2-0.5,0.1-1c-0.2-0.4-0.6,0.3-0.8-0.1c0.2-0.7,0-1.9-0.5-2.5
		c-0.1-0.1-0.3-0.2-0.4,0c-1.7-2-2.3-4.6-3.4-7.1c-0.7-1.7-1.9-3.2-2.2-5c-2.4-1.2-4.6-2.6-6-4.8c0-2-0.1-4.1-0.8-5.4
		c0-0.3,0.4,0,0.5,0c0.5-0.8,0.8-2,1.8-2c-0.2,0.2-0.1,0.5-0.1,0.8C16.1,176.5,17.7,176,19,175.9z"/>
	<path class="st5" d="M69.2,184.1c1.2,1.2,0,3.2-0.6,4.8c-0.4,1.1-0.8,2.3-1.7,2.2c-1.2-0.7-0.6-1.6,0-3c0.3-0.7,0.4-1.6,0.7-2
		C68.2,185.2,69.3,184.8,69.2,184.1z"/>
	<path class="st6" d="M45.7,155.2c0,1.1,1.2,1.1,1.6,1.9c-0.5,1.5-2.2,0.1-3.7,0.4c-0.3,1-0.4,1.9-0.2,3.1c0.8,0.4,2.4,0.6,3.6,0.5
		c0.5-1.2,1.7-1.6,2.3-2.8c2.7-1.4,4,1.1,5.8,2c0,0.6-1.1,0.3-1.4,0.6c0.2,0.4,0.6,0.4,1,0.6c0.5-0.4,0.6-1.8,1.6-1.4
		c-0.4-0.6-0.9-1.1-1.8-1.2c-0.1-0.6-0.5-0.9-1.1-1.1c1.2-1,2.2,0.9,3.1,1.3c0.2,1.2,0.6,2.2,1.8,2.4c0.3,0-0.1-0.7,0.4-0.5
		c0.2-0.3-0.7-0.5-0.6-1.1c0.4-0.2,1-0.1,1.4,0c-0.3,0.9,0.8,1.5,1.3,2c1.2-0.4,2.7-0.2,3.4,0.6c-0.3,0.9-1.3,1-1,2.4
		c-1.7-1.5-5-1.1-7.5-0.7c-0.5-0.9-1.9-0.8-2.8-1.3c0.1-0.4-0.2-1.2,0.1-1.4c-2.2-1.5-5.9,1.2-7.9-0.1c-1.2,0.8-2.3,1.7-2.6,3.4
		c-1.7,0.1-3.6,2.2-4,4.6c-0.1,1.1-0.4,3-0.2,3.5c0.3,0.9,2,0.7,1.6,1.9c0.6,0.1,0.9,0.4,1.2,0.7c0.1,0.4-0.4,0.1-0.2,0.6
		c1.1,0.2,1.9,0.7,2.8,1.1c0.9-0.7,1.9-0.2,3.1-0.4c1.2-0.2,2-1,3.1-0.8c0.8,0.1,1.5,0.8,2.4,0.7c0.9,0.7-0.2,1.8-0.1,2.6
		c0.1,1.5,2.3,2.9,2.2,4.9c0,0.5-0.5,0.8-0.6,1.3c-0.9,3.6,1.1,7,1.4,10.3c2.4,1.4,4.4-0.8,5.5-2.2c0.1-0.8,0.6-1.5,1.2-2.3
		c0.5-0.7,0.8-1.3,1.2-2.3c0.7-1.5,1.7-2.3,2.5-3.2c1.3-1.5-0.6-5,1-6.5c0.3-0.3,1-0.4,1.3-0.7c1.6-1.4,2.1-3.4,2.8-5.4
		c-0.8-0.1-1.7,0.6-3,0.4c-0.3-1.9-2-2.4-2.8-3.8c0.2-1.7-1.3-3.1-1.4-3.7c0.1,0,0.1-0.1,0.1-0.2c2.3,0.4,2.2,7.4,5.6,6.7
		c0.3-0.1,0.3-0.4,0.7-0.7c1.1-0.9,3.8-1.2,3.6-3.2c-0.1-0.7-0.6-1-1.1-1.7c-0.7,0.3-1,1-2.2,0.8c-0.5-0.4-0.3-1.5-0.6-2
		c2.2,1.3,5.5,1.5,7.9,2.6c0,0.5-0.2,0-0.4,0.2c0.1,0.3,0.5,0.3,0.6,0.6c0.1,4.9,0,9.3-1.1,13.1c-3.7,13.6-13.9,23.4-27,27
		c-5.4,1.5-12.4,1.5-17.8,0.4c-13.9-2.9-25-13.4-28.7-27.4c-0.6-2.3-0.9-4.9-1.1-7.7c0.4,0.4,0.8,1.1,1.4,0.8c0-0.6-0.8-0.2-0.7-0.8
		c0.3,0,0.1-0.3,0.4-0.4c1,0.5,1.3,1.7,2.3,2.3c2,0.3,5,0.2,6.2,0.7c-0.9,0.8,1.4,1.6,1.8,0.7c-0.3-0.4-1-0.4-1.7-0.4
		c0.6-0.3,0.3-1.4,0-1.8c-0.5,0-1.2-0.1-1.3,0.2c-0.4-0.6,0.5-1.6,0.1-2.2c-0.6-0.1-1.3,0.8-1.6,1.6c-0.4-0.4-0.6-0.1-1.2,0
		c-2.6-2.8,2.6-6.6,4.1-3.6c-0.6-2.3,2-3.2,1.4-5c0.6,0.1,0.4-0.5,0.6-0.8c0.8-1,2.1-1.7,2.5-3.1c0.2,0,0,0.5,0.4,0.5
		c0.9-0.3,1.3-1.2,1.8-1.9c-0.4-0.2-0.6,0.7-1.2,0.6c-0.2-0.3,0.1-0.9,0.4-1.1c-0.7-0.2-1.2,0.9-2,1c1.5-1.3,3.5-1.9,4.4-3.7
		c-0.2-0.2-0.5,0.2-1,0c0.1-0.3,0.4-0.4,0.6-0.6c-0.7-0.3-0.9-1.2-1.1-2c-0.5,0.4-0.7,1.1-1.7,1.1c-0.3-0.3,0.4-0.5,0.4-1
		c-0.1-0.3-0.3-0.4-0.5-0.6c-1.7,0.9-2.5,2.9-3.5,4.6c0.2,0.6,0.2,1.8-0.6,1.8c-0.2-0.6,0-0.8,0-1.4c-0.6,0.1-1.7-0.5-2.5-0.1
		c0.1-0.5-0.1-0.7-0.2-1c1.1-1,1.9-2.4,3.1-3.2c-0.1-0.2-0.2-0.4-0.5-0.4c0.9-0.9,2.6-1,2.6-2.8c-0.9-0.2-1.4,1-1.8,1.7
		c-0.4-0.3,0-0.3,0.1-0.6c-0.9-0.9-1.8,0.8-2.3,1.4c-1.4,0.2-2.6,0.6-3.6,1.2c-0.9-0.1-1.1-0.6-2-0.2c0.5-1,0.8-2.1,2-2.3
		c-0.4,0.4-0.9,0.7-1.3,1.1c0,0.1,0.2,0.1,0.4,0.1c-0.2,0.2-0.5,0.3-0.6,0.6c1.4,0.4,2.8-0.7,4.1-1.1c0-0.6-0.5-0.7-0.4-1.6
		c-0.2,0.2-0.9,0-0.7,0.6c-0.6-0.2-0.9,0-1.4,0.1c0.2-0.2,0.1-0.6-0.4-0.5c-0.1-0.5,0.4-0.5,0.4-1c0.3,0.1,0.1,0.2,0.1,0.5
		c0.4,0,0.5-0.3,1-0.2c-0.1,0.1-0.1,0.2-0.1,0.4c0.9-0.3,1.8-0.7,2.3-1.4c-0.7-0.1-0.7,0.4-1.2,0.5c-0.3-0.1-0.7-0.1-0.7-0.5
		c-0.4,0-0.4,0.4-0.8,0.4c6.8-10.2,20.7-20.2,39.7-16.2c8,1.7,14.1,5.6,19,10.7c-0.4,0.2-1,0.1-1.4,0.2c0-0.2,0-0.3,0-0.5
		c-0.8,0.2-1.5,0.6-1.7,1.3c-0.6-0.2-0.5-1.5-1.4-1c0.1,0.4,0.3,0.7,0.4,1.2c-0.5,0.5-1.3,0.8-2,0.4c-0.2,0.2,0.1,0.3,0.2,0.5
		c-0.9,0.4-0.9-1.1-1.7-1.2c0.6-0.2,1.7,0.6,2.5,0.1c-0.2-2.2-3.9-1-4.8-2.5c-0.7,0.4-1.9,0.2-2.9,0.5c-0.6,0.9-2,1-1.9,2.5
		c-0.6,0.1-0.8,0.5-1.6,0.4c-0.4,0.3-0.6,0.9-1,1.3c0.5,0.4,0.3,0.7,0.6,1.2c1.7-0.7,2.7,0.9,3.6,1.7c0.9-0.7,0.6-2.5,0.8-3.8
		c0.6-0.4,1.4-1,2-0.8c-0.3,0.4-0.7,0.8-1.1,1.1c-0.3,2,1.9,1.5,3,1.4c-0.5,0.6-1.9,0.2-1.8,1.3c-0.4,0.1-0.7-0.4-1-0.1
		c-0.3,0.2,0.1,1.1-0.2,1.3c-1.2,0.1-2.3,0.5-3.5-0.1c-0.3-0.5-0.1-1-0.2-1.4c-0.4,0.1-0.7,0.3-0.8,0.6c0,0.4-0.1,0.8,0.4,0.7
		c-0.9,1.1-2.8,1.3-3.5,2.5C46.8,155,46.4,155.2,45.7,155.2z M48.3,153.2c-0.9-0.3-1.3-1.1-1.8-1.8c0.3,0,0.4-0.2,0.5-0.4
		c-0.3-0.1-0.5-0.3-1-0.2c0-0.2,0.3-0.2,0.2-0.5c-1.7-0.2-0.6,1.1-0.8,1.8c0.3,0.1,0.8-0.1,0.8,0.1c0.1,0.8-0.6,0.8-0.8,1.3
		c0.2,0.1,0.4,0.2,0.5,0.4c-0.3,0-0.4,0.3-0.6,0.5c0.9,0,1.8,0,2.8,0C48,153.9,48.1,153.5,48.3,153.2z M16.7,151.4
		c0.2,0.8-0.1,1.3,0,2.2c-0.5,0.2-0.8,0.6-1.3,0.8c0.6,0.5,1.9,0.7,2.8,0.4c0.1-0.5-0.4-0.4-0.4-0.8c0.7,0,0.2-1.3,0.8-1.4
		c0.9,0,1.8,0,1.7-1c-0.5-0.1-1.1-0.1-1.7-0.1c0-0.3,0.4-0.3,0.5-0.5c-0.8-0.3-1.3-0.9-2.4-1c0,0.2,0,0.5,0,0.7
		c-0.4-0.1-0.4,0.2-0.7,0.1c0-0.2,0.3-0.2,0.2-0.5c-1.1-0.1-1.2,1-2,0.7c0,0.6-0.7,0.5-0.7,1.2c0.5,0.3,0.2,0,0.1,0.6
		C14.8,152.6,15.8,152,16.7,151.4z M31.8,144.8c0.3-0.4,1.5,0,1.7-0.6c-0.2-0.4-1.1-0.2-1.2-0.7c1-0.2,1.9-0.6,2-1.8
		c-0.3-0.1-0.3,0.2-0.6,0.1c0.1-0.4,0.6-0.3,0.6-0.7c-0.2,0-0.4,0-0.5-0.1c0.8-0.7,1.6-1.3,2.5-1.9c-0.8-0.3-1.5,0.5-2.4,0.5
		c-0.3,0-0.2-0.4-0.6-0.4c-1.1,0.1-2.1,0.3-2.8,0.7c-2.6,0.6-4.5,2.7-7.1,3.6c-2.5,0.9-5.2,1-7.2,2.8c0,0.3,0,0.6,0,1
		c-0.5-0.2-1.6,0.2-1.9,0.8c0.1,0.2,0,0.6,0.2,0.7c0.4-0.3,1.1-0.3,1.6-0.6c-0.7,0.9-2.2,0.8-2.8,1.8c0.5-0.2,0.5-0.1,0.4,0.4
		c1.3-0.3,2.4-0.7,3.2-1.4c-0.6,0-1.1,0.7-1.6,0.4c1.4-0.4,2.3-1.4,3.4-2.2c0-0.2,0-0.5,0-0.7c1.2-0.6,2.4-2,3.7-2.2
		c-1.2,0.6-2,1.6-2.9,2.5c0.5,0.1,0.6-0.2,1.1-0.1c-0.1,0.3-0.5,0.3-0.5,0.7c0.9-0.1,2.1-0.9,2.9-0.2c0,0.6-0.4,0.7-0.5,1.2
		c0.2,0.3,0.8-0.5,1.2,0c-0.2,0.2-0.8,0-0.8,0.5c0.2,0.3,0.6-0.2,0.7,0.1c-0.4,0.1-0.4,0.7-0.8,0.7c0,1.2,0,2.3,0.4,3.1
		c0.5,0.3,1.1,0.3,1.8,0.1c0.7-0.6,0.8-1.7,1.3-2.5c1.7-2.5,4.4-3.7,6.4-5.5C32.5,144.9,32,145.1,31.8,144.8z M50.7,141.3
		c0.8,0.5,2.6,0.6,3.8,0.4c-0.4-0.1-0.7-0.3-1.1-0.5c0.8,0,1.4-0.1,1.7-0.6C53.5,140.7,51.4,140.3,50.7,141.3z M32.6,146.8
		c0.2,0,0.1,0.3,0,0.4c0.2,0,0.4,0,0.4,0.2c1.5-0.2,2.8-0.6,3.2-1.9C34.7,145.2,33.7,146.4,32.6,146.8z M12,149.6
		c0.4,0.1,0.7,0.1,1,0c0-0.1,0-0.2,0-0.4C12.5,149.2,12.1,149.2,12,149.6z M11.6,151.4c0.6,0,0.9-0.3,0.8-1
		C12,150.5,11.6,150.8,11.6,151.4z M12.7,151c0.4,0,0.8-0.1,0.7-0.6C13,150.4,12.9,150.8,12.7,151z M12.1,151.8
		c-1-0.1-1,0.9-1.6,1.2c0.1,0.1,0.3,0.1,0.4,0.2c0.5,0.2,0.5-0.6,0.7-0.2c0,0.3-0.5,0.5-0.1,0.8c0.6,0.1,0.5-0.6,1.1-0.6
		c-0.4-1,0.6-1.3,1-1.9c-1-0.4-1.2,0.9-1.7,1.2C11.8,152,12.2,152.1,12.1,151.8z M43.4,152.2c-0.1,0.4,0.1,0.5,0.2,0.7
		c-0.2,0.1-0.4,0.2-0.5,0.4c1,0.9,2-0.2,2-1.3C44.7,151.9,44,152.3,43.4,152.2z M19,161c0.4-0.3,0.8-0.6,1.3-0.8
		c-0.1,0.4,0.5,0.2,0.7,0.2c0-0.4,0-0.8-0.1-1.1c-0.5-0.1-0.8,0.3-0.8-0.1c-0.1-0.3,0.6-0.4,0.1-0.6C19.6,159.1,18.5,160.2,19,161z
		 M52,159.2c0-0.3,0-0.5-0.1-0.6c-0.1,0-0.2,0-0.4,0C51.6,159,51.6,159.3,52,159.2z M51.5,160.4c0.6,0.1,0.6-0.5,0.6-1.1
		c-0.2,0-0.5,0-0.7,0C51.4,159.7,51.6,159.9,51.5,160.4z M11.2,173.5c1.3-0.9,2.1,0.7,3-0.1C13.4,173,11.6,172.5,11.2,173.5z
		 M15.6,177c0-0.3,0-0.7,0.1-0.8c-1,0-1.3,1.3-1.8,2c-0.1,0-0.5-0.3-0.5,0c0.7,1.4,0.8,3.4,0.8,5.4c1.4,2.2,3.6,3.6,6,4.8
		c0.2,1.9,1.5,3.4,2.2,5c1.1,2.5,1.7,5.1,3.4,7.1c0-0.2,0.3-0.1,0.4,0c0.5,0.6,0.7,1.8,0.5,2.5c0.2,0.4,0.7-0.2,0.8,0.1
		c0.1,0.5-0.1,0.6-0.1,1c1.2,1.5,4,3.6,6.2,1.7c-3.6-0.1-3.4-4-4.8-6.2c0.6,0,0.5-0.7,0.7-1.1c-0.2-0.1-0.2-0.4-0.4-0.6
		c1.3,0,1.5-1.7,0.6-2.3c0.5,0,0.9,0.2,1.3,0c0.4-0.6,0.2-1.6,0-2.3c0.1-0.2,0.7,0.1,0.6-0.4c0.2-0.5-0.7-1.1-0.7-1.8
		c0.5-1.2,1.9-1.6,3-2.3c0.1-1.8-0.5-2.9-0.7-4.4c0.3-0.2,0.4-0.7,0.7-1c0.7-3.6-3.7-4.2-5.9-3.4c-0.3-0.7-1.5-1.3-2.2-0.6
		c0.1-0.6-0.7-0.3-1.1-0.4c-0.3-3-4.7-1.2-5.9-3.2C17.7,176,16.1,176.5,15.6,177z M67.6,186c-0.3,0.4-0.4,1.4-0.7,2
		c-0.6,1.4-1.2,2.3,0,3c0.9,0.1,1.3-1.1,1.7-2.2c0.6-1.6,1.8-3.6,0.6-4.8C69.3,184.8,68.2,185.2,67.6,186z"/>
	<path class="st5" d="M32.8,144.8c-2,1.8-4.7,3.1-6.4,5.5c-0.6,0.8-0.6,1.9-1.3,2.5c-0.7,0.1-1.3,0.2-1.8-0.1
		c-0.4-0.8-0.4-1.9-0.4-3.1c0.5-0.1,0.4-0.6,0.8-0.7c-0.2-0.4-0.5,0.2-0.7-0.1c0-0.4,0.6-0.2,0.8-0.5c-0.4-0.5-1,0.3-1.2,0
		c0.1-0.5,0.5-0.6,0.5-1.2c-0.8-0.6-2,0.2-2.9,0.2c0-0.4,0.4-0.4,0.5-0.7c-0.5-0.1-0.6,0.2-1.1,0.1c0.8-1,1.7-1.9,2.9-2.5
		c-1.3,0.2-2.5,1.5-3.7,2.2c0,0.2,0,0.5,0,0.7c-1.1,0.8-1.9,1.7-3.4,2.2c0.5,0.3,1-0.3,1.6-0.4c-0.9,0.7-2,1.1-3.2,1.4
		c0.2-0.5,0.1-0.5-0.4-0.4c0.5-1,2.1-0.9,2.8-1.8c-0.4,0.3-1.1,0.3-1.6,0.6c-0.2-0.1-0.1-0.5-0.2-0.7c0.3-0.6,1.4-1.1,1.9-0.8
		c0-0.3,0-0.6,0-1c2-1.7,4.7-1.9,7.2-2.8c2.6-0.9,4.5-3,7.1-3.6c0.7-0.5,1.7-0.7,2.8-0.7c0.4-0.1,0.3,0.3,0.6,0.4
		c1,0,1.6-0.8,2.4-0.5c-0.9,0.6-1.7,1.3-2.5,1.9c0,0.2,0.3,0.1,0.5,0.1c0,0.4-0.5,0.3-0.6,0.7c0.3,0,0.3-0.2,0.6-0.1
		c-0.1,1.2-1,1.6-2,1.8c0.1,0.5,1,0.3,1.2,0.7c-0.1,0.6-1.3,0.2-1.7,0.6C32,145.1,32.5,144.9,32.8,144.8z"/>
	<path class="st5" d="M55.2,140.6c-0.3,0.5-0.9,0.6-1.7,0.6c0.4,0.2,0.6,0.4,1.1,0.5c-1.2,0.3-3,0.1-3.8-0.4
		C51.4,140.3,53.5,140.7,55.2,140.6z"/>
	<path class="st5" d="M13.6,152.8c0-0.6,0.4-0.3-0.1-0.6c0-0.7,0.7-0.6,0.7-1.2c0.9,0.3,1-0.8,2-0.7c0.1,0.3-0.2,0.2-0.2,0.5
		c0.4,0.1,0.4-0.2,0.7-0.1c0-0.2,0-0.5,0-0.7c1.1,0,1.6,0.7,2.4,1c-0.1,0.2-0.4,0.2-0.5,0.5c0.6,0,1.2,0,1.7,0.1c0.1,1-0.8,1-1.7,1
		c-0.6,0.2-0.1,1.4-0.8,1.4c0,0.4,0.5,0.3,0.4,0.8c-0.9,0.4-2.2,0.2-2.8-0.4c0.5-0.2,0.8-0.6,1.3-0.8c-0.1-0.9,0.2-1.4,0-2.2
		C15.8,152,14.8,152.6,13.6,152.8z"/>
</g>
<path class="st7" d="M179.9,10.7c69.8,0,127.7,52.3,136.5,119.8h10.8C318.2,57.1,255.6,0,179.9,0c-75,0-137.2,56-147,128.4
	c2.4-0.4,4.9-0.6,7.5-0.6c1.1,0,2.2,0.1,3.3,0.1C53.6,61.7,110.9,10.7,179.9,10.7z"/>
<path class="st7" d="M301.6,212.2c-0.9,1.8-2,3.7-3.2,5.7c-0.2,0.3-0.4,0.6-0.5,0.9c-0.2,0.3-0.3,0.6-0.5,0.8
	c-24.2,39.6-67.8,66.2-117.6,66.2c-51.8,0-97.1-28.8-120.5-71.2c-3.3,1.5-6.8,2.5-10.4,3.2c25,46.8,74.3,78.7,130.9,78.7
	c41.4,0,78.9-17.1,105.9-44.6l0,0.1c0,0,9.2-7.5,21-27c1.4-2.3,2.7-4.6,4-7c1-1.8,2-3.8,3.1-5.8H301.6z"/>
<g>
	<path class="st0" d="M286.9,139.1v9.1h29h0.3c0.1,11.4-1.2,23-4.1,34.6c-2.3,9-4.1,15.9-6,20.4h12.6c2.2-5.6,4-11.4,5.6-17.3
		c3.2-12.6,4.6-25.3,4.5-37.7h28.4v-9.1H286.9z"/>
</g>
</svg>
